<?xml version="1.0" encoding="utf-8"?>
<!-- Generator: Adobe Illustrator 23.0.1, SVG Export Plug-In . SVG Version: 6.00 Build 0)  -->
<svg version="1.1" id="Layer_1" xmlns="http://www.w3.org/2000/svg" xmlns:xlink="http://www.w3.org/1999/xlink" x="0px" y="0px"
	 viewBox="0 0 463 146" style="enable-background:new 0 0 463 146;" xml:space="preserve">
<style type="text/css">
	.st0{fill:#FF7F0B;}
	.st1{fill:#00AF5A;}
	.st2{fill:#0080BB;}
</style>
<g>
	<path class="st0" d="M75.32,126.7L75.32,126.7c-32.51,0-58.86-26.35-58.86-58.86V11.91h0c32.51,0,58.86,26.35,58.86,58.86V126.7z"
		/>
	<path class="st1" d="M80.48,79.11L80.48,79.11V49.41c0-20.71,16.79-37.5,37.5-37.5l0,0v29.71
		C117.98,62.33,101.19,79.11,80.48,79.11z"/>
	<path class="st2" d="M165.24,126.7h-43c-23.07,0-41.76-18.7-41.76-41.76v0h43C146.55,84.94,165.24,103.64,165.24,126.7
		L165.24,126.7z"/>
</g>
<g>
	<path class="st0" d="M213.04,116.98c0,1.64-0.34,3.1-1.03,4.4c-0.69,1.29-1.63,2.36-2.82,3.21c-1.39,1-2.91,1.72-4.57,2.14
		c-1.66,0.43-3.77,0.64-6.32,0.64h-15.36V93.45h13.66c2.84,0,4.91,0.09,6.23,0.27c1.32,0.18,2.62,0.58,3.91,1.21
		c1.34,0.65,2.33,1.53,2.99,2.63c0.65,1.1,0.98,2.36,0.98,3.77c0,1.64-0.45,3.09-1.35,4.34c-0.9,1.25-2.17,2.23-3.8,2.93v0.18
		c2.3,0.44,4.12,1.35,5.47,2.73C212.36,112.9,213.04,114.72,213.04,116.98z M201.41,103.04c0-0.56-0.15-1.12-0.44-1.69
		c-0.29-0.56-0.81-0.98-1.55-1.25c-0.66-0.24-1.48-0.38-2.47-0.4c-0.98-0.02-2.37-0.03-4.15-0.03h-0.85v7.17h1.42
		c1.43,0,2.65-0.02,3.66-0.07c1.01-0.05,1.8-0.2,2.39-0.46c0.82-0.35,1.35-0.8,1.61-1.35S201.41,103.77,201.41,103.04z
		 M203.61,116.84c0-1.08-0.22-1.91-0.65-2.49s-1.17-1.02-2.2-1.31c-0.71-0.2-1.68-0.3-2.92-0.32c-1.24-0.02-2.54-0.02-3.89-0.02
		h-1.98v8.45h0.66c2.55,0,4.37-0.01,5.47-0.02c1.1-0.01,2.11-0.21,3.04-0.59c0.94-0.38,1.59-0.88,1.95-1.51
		C203.43,118.39,203.61,117.66,203.61,116.84z"/>
	<path class="st0" d="M254.01,110.42c0,5.41-1.61,9.7-4.82,12.88s-7.66,4.77-13.33,4.77c-5.66,0-10.09-1.59-13.3-4.77
		c-3.21-3.18-4.82-7.47-4.82-12.88c0-5.45,1.61-9.76,4.82-12.92c3.21-3.17,7.65-4.75,13.3-4.75c5.64,0,10.07,1.58,13.3,4.75
		C252.39,100.66,254.01,104.97,254.01,110.42z M241.98,119.01c0.88-1.03,1.54-2.25,1.96-3.66s0.64-3.06,0.64-4.95
		c0-2.03-0.24-3.77-0.73-5.19c-0.49-1.43-1.13-2.58-1.91-3.46c-0.8-0.91-1.73-1.57-2.78-1.98c-1.05-0.41-2.14-0.61-3.27-0.61
		c-1.15,0-2.23,0.2-3.25,0.59c-1.02,0.4-1.95,1.05-2.8,1.96c-0.79,0.85-1.43,2.02-1.93,3.52c-0.5,1.5-0.74,3.23-0.74,5.2
		c0,2.02,0.24,3.74,0.72,5.16c0.48,1.42,1.11,2.58,1.9,3.47c0.79,0.9,1.71,1.56,2.76,1.98c1.06,0.43,2.17,0.64,3.33,0.64
		c1.17,0,2.28-0.22,3.33-0.65C240.27,120.59,241.19,119.92,241.98,119.01z"/>
	<path class="st0" d="M295.14,110.42c0,5.41-1.61,9.7-4.82,12.88s-7.66,4.77-13.33,4.77c-5.66,0-10.09-1.59-13.3-4.77
		c-3.21-3.18-4.82-7.47-4.82-12.88c0-5.45,1.61-9.76,4.82-12.92c3.21-3.17,7.65-4.75,13.3-4.75c5.64,0,10.07,1.58,13.3,4.75
		C293.53,100.66,295.14,104.97,295.14,110.42z M283.12,119.01c0.88-1.03,1.54-2.25,1.96-3.66s0.64-3.06,0.64-4.95
		c0-2.03-0.24-3.77-0.73-5.19c-0.49-1.43-1.13-2.58-1.91-3.46c-0.8-0.91-1.73-1.57-2.78-1.98c-1.05-0.41-2.14-0.61-3.27-0.61
		c-1.15,0-2.23,0.2-3.25,0.59c-1.02,0.4-1.95,1.05-2.8,1.96c-0.79,0.85-1.43,2.02-1.93,3.52c-0.5,1.5-0.74,3.23-0.74,5.2
		c0,2.02,0.24,3.74,0.72,5.16c0.48,1.42,1.11,2.58,1.9,3.47c0.79,0.9,1.71,1.56,2.76,1.98c1.06,0.43,2.17,0.64,3.33,0.64
		c1.17,0,2.28-0.22,3.33-0.65C281.41,120.59,282.33,119.92,283.12,119.01z"/>
	<path class="st0" d="M334.91,127.36h-11.15l-10.52-13.57l-2.1,2.51v11.06h-9.07V93.45h9.07v15.36l12.57-15.36h10.52l-13.75,15.69
		L334.91,127.36z"/>
	<path class="st0" d="M358.39,127.36h-20.6v-6.01h5.77V99.47h-5.77v-6.01h20.6v6.01h-5.77v21.89h5.77V127.36z"/>
	<path class="st0" d="M397.78,127.36h-8.74l-14.93-23.27v23.27h-8.32V93.45h10.85l12.83,19.43V93.45h8.32V127.36z"/>
	<path class="st0" d="M437.88,125.43c-1.58,0.59-3.66,1.18-6.26,1.76c-2.6,0.58-5.19,0.88-7.77,0.88c-5.99,0-10.67-1.57-14.06-4.7
		c-3.39-3.14-5.08-7.47-5.08-12.99c0-5.27,1.71-9.52,5.13-12.74c3.42-3.23,8.18-4.84,14.29-4.84c2.32,0,4.52,0.2,6.62,0.6
		c2.09,0.4,4.43,1.2,6.99,2.4v7.95h-1.02c-0.44-0.32-1.09-0.77-1.94-1.35c-0.85-0.58-1.67-1.08-2.46-1.49
		c-0.91-0.49-1.98-0.9-3.2-1.25c-1.22-0.35-2.52-0.52-3.89-0.52c-1.61,0-3.06,0.23-4.37,0.68c-1.31,0.46-2.48,1.15-3.52,2.1
		c-0.99,0.91-1.78,2.07-2.35,3.47c-0.58,1.4-0.86,3.03-0.86,4.86c0,3.75,1.03,6.62,3.1,8.61c2.06,1.99,5.11,2.98,9.14,2.98
		c0.35,0,0.73-0.01,1.15-0.02c0.42-0.02,0.8-0.04,1.15-0.07v-6.65h-7.02v-6.4h16.23V125.43z"/>
</g>
<g>
	<path class="st2" d="M220.7,64.58h-37.86V12.23h37.86v10.13h-24.43v9.04h22.68v10.13h-22.68v12.94h24.43V64.58z"/>
	<path class="st2" d="M279.48,12.23l-19.09,52.35h-15.12l-19.09-52.35h14.18l12.65,36.75l12.65-36.75H279.48z"/>
	<path class="st2" d="M324.87,64.58H287V12.23h37.86v10.13h-24.43v9.04h22.68v10.13h-22.68v12.94h24.43V64.58z"/>
	<path class="st2" d="M383.79,64.58h-13.01l-22.22-35.93v35.93h-12.38V12.23h16.14l19.09,29.99V12.23h12.38V64.58z"/>
	<path class="st2" d="M438.1,22.36h-16.35v42.22h-13.5V22.36h-16.35V12.23h46.2V22.36z"/>
</g>
</svg>
